<?xml version="1.0" encoding="utf-8"?>
<!-- Generator: Adobe Illustrator 25.4.1, SVG Export Plug-In . SVG Version: 6.00 Build 0)  -->
<svg version="1.1" id="Layer_1" xmlns="http://www.w3.org/2000/svg" xmlns:xlink="http://www.w3.org/1999/xlink" x="0px" y="0px"
	 width="337px" height="119px" viewBox="0 0 337 119" style="enable-background:new 0 0 337 119;" xml:space="preserve">
<style type="text/css">
	.st0{fill-rule:evenodd;clip-rule:evenodd;fill:#1D1D1B;}
	.st1{filter:url(#Adobe_OpacityMaskFilter);}
	.st2{fill-rule:evenodd;clip-rule:evenodd;fill:#FFFFFF;}
	.st3{mask:url(#mask-2_00000084497914624553517430000015221254949414876067_);fill-rule:evenodd;clip-rule:evenodd;fill:#1D1D1B;}
	.st4{filter:url(#Adobe_OpacityMaskFilter_00000119080362774725045130000003442238632685831608_);}
	.st5{mask:url(#mask-4_00000058572932275276824050000001478236902504199846_);fill-rule:evenodd;clip-rule:evenodd;fill:#1D1D1B;}
	.st6{filter:url(#Adobe_OpacityMaskFilter_00000033361469140747939900000001331839518639816614_);}
	.st7{mask:url(#mask-6_00000013887267633524164350000015670819889020229818_);fill-rule:evenodd;clip-rule:evenodd;fill:#1D1D1B;}
	.st8{filter:url(#Adobe_OpacityMaskFilter_00000021115792742285130640000005957223276866272139_);}
	.st9{mask:url(#mask-6_00000078759312558360959080000010811231846281777567_);fill-rule:evenodd;clip-rule:evenodd;fill:#1D1D1B;}
	.st10{filter:url(#Adobe_OpacityMaskFilter_00000150062382389975500200000002383452212044738982_);}
	.st11{mask:url(#mask-6_00000124128760315954163960000001950209104897354632_);fill-rule:evenodd;clip-rule:evenodd;fill:#1D1D1B;}
	.st12{filter:url(#Adobe_OpacityMaskFilter_00000102541366983865324350000003999351392229037207_);}
	.st13{mask:url(#mask-6_00000177465971498240417610000007912664946996147851_);fill-rule:evenodd;clip-rule:evenodd;fill:#1D1D1B;}
	.st14{filter:url(#Adobe_OpacityMaskFilter_00000150067164146226486590000012290345210506528441_);}
	.st15{mask:url(#mask-6_00000068638920456166318370000007778966503788948882_);fill-rule:evenodd;clip-rule:evenodd;fill:#1D1D1B;}
	.st16{filter:url(#Adobe_OpacityMaskFilter_00000021824595750538882890000009873847144212569258_);}
	.st17{mask:url(#mask-6_00000104666864067340275800000002619430801005754003_);fill-rule:evenodd;clip-rule:evenodd;fill:#1D1D1B;}
	.st18{filter:url(#Adobe_OpacityMaskFilter_00000059277200622598600350000014598572554307707264_);}
	.st19{mask:url(#mask-6_00000065052591972900021970000013855317396128137133_);fill-rule:evenodd;clip-rule:evenodd;fill:#1D1D1B;}
	.st20{filter:url(#Adobe_OpacityMaskFilter_00000151515251911000696110000018143753090459852974_);}
	.st21{mask:url(#mask-6_00000062914722496337149160000005844403472220676009_);fill-rule:evenodd;clip-rule:evenodd;fill:#1D1D1B;}
	.st22{filter:url(#Adobe_OpacityMaskFilter_00000049192194247327080300000017824311798962336900_);}
	.st23{mask:url(#mask-6_00000011002174045840645900000005266502389641865122_);fill-rule:evenodd;clip-rule:evenodd;fill:#1D1D1B;}
	.st24{fill-rule:evenodd;clip-rule:evenodd;fill:#EBEBEB;}
</style>
<g id="Symbols">
	<g id="Group-2">
		<g id="logo-lanz-architekten" transform="translate(245.000000, 112.000000)">
			<polygon id="Fill-1" class="st0" points="-159,-29.4 -159,-9.5 -148.7,-9.5 -148.7,-12.9 -155.2,-12.9 -155.2,-29.4 			"/>
			<g id="Group-28">
				<g id="Group-4" transform="translate(11.705928, 6.541512)">
					<g id="Clip-3">
					</g>
					<defs>
						<filter id="Adobe_OpacityMaskFilter" filterUnits="userSpaceOnUse" x="-159" y="-31" width="12.3" height="15.3">
							<feColorMatrix  type="matrix" values="1 0 0 0 0  0 1 0 0 0  0 0 1 0 0  0 0 0 1 0"/>
						</filter>
					</defs>
					
						<mask maskUnits="userSpaceOnUse" x="-159" y="-31" width="12.3" height="15.3" id="mask-2_00000084497914624553517430000015221254949414876067_">
						<g class="st1">
							<polygon id="path-1_00000149359442814819765480000004878545977098038964_" class="st2" points="-159,-31 -146.7,-31 
								-146.7,-15.7 -159,-15.7 							"/>
						</g>
					</mask>
					<path id="Fill-2" class="st3" d="M-150.5-22.5c-3.8,0-4.8,0.9-4.8,2.2c0,0.9,0.7,1.7,1.8,1.7c1.8,0,3.1-1.8,3.1-3.5V-22.5z
						 M-150.2-16c0-0.9,0-1.7,0.1-2.5l0,0c-0.7,1.7-2.5,2.8-4.7,2.8c-2.7,0-4.2-1.8-4.2-4.2c0-3.5,3.3-5.1,8.5-5.1v-0.5
						c0-1.8-0.7-2.6-2.6-2.6c-1.3,0-3.1,0.4-4.4,1l-0.6-2.9c1.5-0.6,3.6-1,5.5-1c4.5,0,5.9,1.9,5.9,5.2v6c0,1.2,0,2.6,0.1,3.8
						H-150.2z"/>
				</g>
				<path id="Fill-5" class="st0" d="M-121.9-9.5v-9.4c0-1.5-0.4-2.4-1.8-2.4c-1.9,0-3.4,2.1-3.4,4.7v7.1h-3.8v-14.6h3.6
					c0,0.7-0.1,1.9-0.2,2.6h0c0.9-1.7,2.6-2.9,5-2.9c3.3,0,4.4,2.1,4.4,4.7v10.3H-121.9z"/>
				<path id="Fill-7" class="st0" d="M-114.8-9.5v-2.7l5.9-8.6c-0.6,0-1.7,0.1-3.1,0.1h-2.6v-3.4h10.3v2.7l-5.8,8.5
					c0.6,0,2.2,0,3.3,0h2.6v3.4H-114.8z"/>
				<path id="Fill-9" class="st0" d="M-86-24.7c-0.4-1-0.6-1.8-0.9-2.7h0c-0.3,0.8-0.6,1.7-0.9,2.6l-3.2,8.6h8.1L-86-24.7z
					 M-80.5-9.5l-1.8-5.1h-9.2l-1.9,5.1h-2l7.5-19.9h2l7.5,19.9H-80.5z"/>
				<path id="Fill-11" class="st0" d="M-68.5-22.5c-3.3-0.5-4.9,2.1-4.9,7.2v5.8h-1.9v-14.6h1.9c0,1-0.1,2.5-0.4,3.8l0.1,0
					c0.6-2.2,2.1-4.5,5.3-4.1L-68.5-22.5z"/>
				<path id="Fill-13" class="st0" d="M-60.7-9.3c-3.1,0-6.3-1.3-6.3-7c0-4.9,2.4-8,6.9-8c1.5,0,2.8,0.2,3.9,0.7l-0.4,1.5
					c-1-0.4-2.4-0.7-3.8-0.7c-2.9,0-4.6,2.6-4.6,6.2c0,3.2,0.9,5.8,4.7,5.8c1.4,0,2.7-0.3,3.8-0.8l0.4,1.5
					C-57.4-9.6-59.1-9.3-60.7-9.3"/>
				<g id="Group-17" transform="translate(106.283291, 0.000000)">
					<g id="Clip-16">
					</g>
					<defs>
						
							<filter id="Adobe_OpacityMaskFilter_00000166658572545631714380000009995304250689248668_" filterUnits="userSpaceOnUse" x="-159" y="-31" width="11.4" height="21.5">
							<feColorMatrix  type="matrix" values="1 0 0 0 0  0 1 0 0 0  0 0 1 0 0  0 0 0 1 0"/>
						</filter>
					</defs>
					
						<mask maskUnits="userSpaceOnUse" x="-159" y="-31" width="11.4" height="21.5" id="mask-4_00000058572932275276824050000001478236902504199846_">
						<g style="filter:url(#Adobe_OpacityMaskFilter_00000166658572545631714380000009995304250689248668_);">
							<polygon id="path-3_00000032607250607357856810000015535503343082560647_" class="st2" points="-159,-31 -147.6,-31 
								-147.6,-9.5 -159,-9.5 							"/>
						</g>
					</mask>
					<path id="Fill-15" class="st5" d="M-149.5-9.5V-19c0-2.4-0.7-3.9-3-3.9c-2.8,0-4.7,2.7-4.7,6.4v7h-1.9V-31h1.9v7.4
						c0,1-0.1,2.2-0.2,2.9l0.1,0c0.9-2.3,2.7-3.7,5.3-3.7c3.4,0,4.4,2.1,4.4,4.7v10.2H-149.5z"/>
				</g>
				<g id="Clip-19">
				</g>
				<defs>
					
						<filter id="Adobe_OpacityMaskFilter_00000093144218242393721830000015804623840686604963_" filterUnits="userSpaceOnUse" x="-36.3" y="-30.2" width="2.7" height="20.7">
						<feColorMatrix  type="matrix" values="1 0 0 0 0  0 1 0 0 0  0 0 1 0 0  0 0 0 1 0"/>
					</filter>
				</defs>
				
					<mask maskUnits="userSpaceOnUse" x="-36.3" y="-30.2" width="2.7" height="20.7" id="mask-6_00000013887267633524164350000015670819889020229818_">
					<g style="filter:url(#Adobe_OpacityMaskFilter_00000093144218242393721830000015804623840686604963_);">
						<polygon id="path-5_00000080911105994081784110000008960666819684526987_" class="st2" points="-159,-9.2 91,-9.2 91,-31 
							-159,-31 						"/>
					</g>
				</mask>
				<path id="Fill-18" class="st7" d="M-35.9-9.5h1.9v-14.6h-1.9V-9.5z M-35-27.6c-0.7,0-1.3-0.6-1.3-1.3s0.6-1.3,1.3-1.3
					c0.7,0,1.3,0.6,1.3,1.3C-33.7-28.2-34.3-27.6-35-27.6L-35-27.6z"/>
				<defs>
					
						<filter id="Adobe_OpacityMaskFilter_00000159448648371084706910000000897798264529626533_" filterUnits="userSpaceOnUse" x="-31.5" y="-29.6" width="9.8" height="20.3">
						<feColorMatrix  type="matrix" values="1 0 0 0 0  0 1 0 0 0  0 0 1 0 0  0 0 0 1 0"/>
					</filter>
				</defs>
				
					<mask maskUnits="userSpaceOnUse" x="-31.5" y="-29.6" width="9.8" height="20.3" id="mask-6_00000078759312558360959080000010811231846281777567_">
					<g style="filter:url(#Adobe_OpacityMaskFilter_00000159448648371084706910000000897798264529626533_);">
						<polygon id="path-5_00000072282125692850818420000015350488408569673881_" class="st2" points="-159,-9.2 91,-9.2 91,-31 
							-159,-31 						"/>
					</g>
				</mask>
				<path id="Fill-20" class="st9" d="M-24.5-9.3c-2.9,0-3.7-1.3-3.7-4.2v-9.1h-3.4v-1.5h3.4v-5l1.8-0.5v5.5h4.5v1.5h-4.5v8.2
					c0,2.8,0.5,3.5,2.3,3.5c0.8,0,1.5-0.1,2-0.2l0.3,1.6C-22.5-9.4-23.6-9.3-24.5-9.3"/>
				<defs>
					
						<filter id="Adobe_OpacityMaskFilter_00000137133836960154015050000007358275070844402312_" filterUnits="userSpaceOnUse" x="-19.5" y="-24.4" width="12" height="15.1">
						<feColorMatrix  type="matrix" values="1 0 0 0 0  0 1 0 0 0  0 0 1 0 0  0 0 0 1 0"/>
					</filter>
				</defs>
				
					<mask maskUnits="userSpaceOnUse" x="-19.5" y="-24.4" width="12" height="15.1" id="mask-6_00000124128760315954163960000001950209104897354632_">
					<g style="filter:url(#Adobe_OpacityMaskFilter_00000137133836960154015050000007358275070844402312_);">
						<polygon id="path-5_00000054954274799520904610000006685910397454366862_" class="st2" points="-159,-9.2 91,-9.2 91,-31 
							-159,-31 						"/>
					</g>
				</mask>
				<path id="Fill-21" class="st11" d="M-13.3-22.9c-2.2,0-3.7,1.6-4.1,4.1h7.9C-9.5-21.2-10.9-22.9-13.3-22.9 M-7.6-17.4h-9.9
					c-0.2,4.7,1.6,6.5,5,6.5c1.4,0,2.9-0.3,4.1-0.9l0.4,1.6c-1.4,0.6-3.1,0.9-4.9,0.9c-4.3,0-6.6-2.4-6.6-7.5c0-4.4,2.4-7.6,6.3-7.6
					c4,0,5.6,2.7,5.6,5.9C-7.6-18.3-7.6-17.9-7.6-17.4"/>
				<defs>
					
						<filter id="Adobe_OpacityMaskFilter_00000142875971875779399560000006664023760294279325_" filterUnits="userSpaceOnUse" x="-3.5" y="-31" width="10.4" height="21.5">
						<feColorMatrix  type="matrix" values="1 0 0 0 0  0 1 0 0 0  0 0 1 0 0  0 0 0 1 0"/>
					</filter>
				</defs>
				
					<mask maskUnits="userSpaceOnUse" x="-3.5" y="-31" width="10.4" height="21.5" id="mask-6_00000177465971498240417610000007912664946996147851_">
					<g style="filter:url(#Adobe_OpacityMaskFilter_00000142875971875779399560000006664023760294279325_);">
						<polygon id="path-5_00000143600738896745808000000016011449246733079970_" class="st2" points="-159,-9.2 91,-9.2 91,-31 
							-159,-31 						"/>
					</g>
				</mask>
				<polygon id="Fill-22" class="st13" points="4.4,-9.5 -1.7,-17.3 -1.7,-9.5 -3.5,-9.5 -3.5,-31 -1.7,-31 -1.7,-17.5 4.1,-24.1 
					6.4,-24.1 0.4,-17.5 6.9,-9.5 				"/>
				<defs>
					
						<filter id="Adobe_OpacityMaskFilter_00000023961139601677356140000017498257491108690592_" filterUnits="userSpaceOnUse" x="7.4" y="-29.6" width="9.8" height="20.3">
						<feColorMatrix  type="matrix" values="1 0 0 0 0  0 1 0 0 0  0 0 1 0 0  0 0 0 1 0"/>
					</filter>
				</defs>
				
					<mask maskUnits="userSpaceOnUse" x="7.4" y="-29.6" width="9.8" height="20.3" id="mask-6_00000068638920456166318370000007778966503788948882_">
					<g style="filter:url(#Adobe_OpacityMaskFilter_00000023961139601677356140000017498257491108690592_);">
						<polygon id="path-5_00000096748512656546580200000010016932221309605032_" class="st2" points="-159,-9.2 91,-9.2 91,-31 
							-159,-31 						"/>
					</g>
				</mask>
				<path id="Fill-23" class="st15" d="M14.4-9.3c-2.9,0-3.7-1.3-3.7-4.2v-9.1H7.4v-1.5h3.4v-5l1.8-0.5v5.5h4.5v1.5h-4.5v8.2
					c0,2.8,0.5,3.5,2.3,3.5c0.8,0,1.5-0.1,2-0.2l0.3,1.6C16.4-9.4,15.3-9.3,14.4-9.3"/>
				<defs>
					
						<filter id="Adobe_OpacityMaskFilter_00000071546444116244884810000013964581367373183625_" filterUnits="userSpaceOnUse" x="19.3" y="-24.4" width="12" height="15.1">
						<feColorMatrix  type="matrix" values="1 0 0 0 0  0 1 0 0 0  0 0 1 0 0  0 0 0 1 0"/>
					</filter>
				</defs>
				
					<mask maskUnits="userSpaceOnUse" x="19.3" y="-24.4" width="12" height="15.1" id="mask-6_00000104666864067340275800000002619430801005754003_">
					<g style="filter:url(#Adobe_OpacityMaskFilter_00000071546444116244884810000013964581367373183625_);">
						<polygon id="path-5_00000168075387151574572830000006440187751400493729_" class="st2" points="-159,-9.2 91,-9.2 91,-31 
							-159,-31 						"/>
					</g>
				</mask>
				<path id="Fill-24" class="st17" d="M25.5-22.9c-2.2,0-3.7,1.6-4.1,4.1h7.9C29.4-21.2,27.9-22.9,25.5-22.9 M31.2-17.4h-9.9
					c-0.2,4.7,1.6,6.5,5,6.5c1.4,0,2.9-0.3,4.1-0.9l0.4,1.6c-1.4,0.6-3.1,0.9-4.9,0.9c-4.3,0-6.6-2.4-6.6-7.5c0-4.4,2.4-7.6,6.3-7.6
					c4,0,5.6,2.7,5.6,5.9C31.3-18.3,31.3-17.9,31.2-17.4"/>
				<defs>
					
						<filter id="Adobe_OpacityMaskFilter_00000029019697288555501420000006363067798894742938_" filterUnits="userSpaceOnUse" x="35.3" y="-24.4" width="11.4" height="14.9">
						<feColorMatrix  type="matrix" values="1 0 0 0 0  0 1 0 0 0  0 0 1 0 0  0 0 0 1 0"/>
					</filter>
				</defs>
				
					<mask maskUnits="userSpaceOnUse" x="35.3" y="-24.4" width="11.4" height="14.9" id="mask-6_00000065052591972900021970000013855317396128137133_">
					<g style="filter:url(#Adobe_OpacityMaskFilter_00000029019697288555501420000006363067798894742938_);">
						<polygon id="path-5_00000103944383094180434840000017527304738494015873_" class="st2" points="-159,-9.2 91,-9.2 91,-31 
							-159,-31 						"/>
					</g>
				</mask>
				<path id="Fill-25" class="st19" d="M44.9-9.5V-19c0-2.4-0.7-3.9-3-3.9c-2.8,0-4.7,2.7-4.7,6.4v7h-1.9v-14.6h1.9
					c0,1-0.1,2.5-0.3,3.4l0.1,0c0.8-2.2,2.7-3.7,5.3-3.7c3.4,0,4.4,2.1,4.4,4.7v10.2H44.9z"/>
				<defs>
					
						<filter id="Adobe_OpacityMaskFilter_00000103232137808323331610000002512552653314508204_" filterUnits="userSpaceOnUse" x="56.5" y="-29.4" width="17" height="19.9">
						<feColorMatrix  type="matrix" values="1 0 0 0 0  0 1 0 0 0  0 0 1 0 0  0 0 0 1 0"/>
					</filter>
				</defs>
				
					<mask maskUnits="userSpaceOnUse" x="56.5" y="-29.4" width="17" height="19.9" id="mask-6_00000062914722496337149160000005844403472220676009_">
					<g style="filter:url(#Adobe_OpacityMaskFilter_00000103232137808323331610000002512552653314508204_);">
						<polygon id="path-5_00000159446667941127771740000002043687235749385628_" class="st2" points="-159,-9.2 91,-9.2 91,-31 
							-159,-31 						"/>
					</g>
				</mask>
				<path id="Fill-26" class="st21" d="M65.9-24.7c-0.4-1-0.7-1.8-0.9-2.7h0c-0.3,0.8-0.6,1.7-0.9,2.6l-3.2,8.6H69L65.9-24.7z
					 M71.3-9.5l-1.8-5.1h-9.2l-1.9,5.1h-2L64-29.4h2l7.5,19.9H71.3z"/>
				<defs>
					
						<filter id="Adobe_OpacityMaskFilter_00000036932420664959245700000011272439471099452339_" filterUnits="userSpaceOnUse" x="74.8" y="-29.6" width="16.2" height="20.4">
						<feColorMatrix  type="matrix" values="1 0 0 0 0  0 1 0 0 0  0 0 1 0 0  0 0 0 1 0"/>
					</filter>
				</defs>
				
					<mask maskUnits="userSpaceOnUse" x="74.8" y="-29.6" width="16.2" height="20.4" id="mask-6_00000011002174045840645900000005266502389641865122_">
					<g style="filter:url(#Adobe_OpacityMaskFilter_00000036932420664959245700000011272439471099452339_);">
						<polygon id="path-5_00000114042856782035445920000003899261679396564901_" class="st2" points="-159,-9.2 91,-9.2 91,-31 
							-159,-31 						"/>
					</g>
				</mask>
				<path id="Fill-27" class="st23" d="M84.6-9.3c-6,0-9.8-3.6-9.8-9.8c0-6,3.5-10.5,10.4-10.5c1.9,0,3.6,0.3,5.4,0.9l-0.4,1.7
					c-1.7-0.7-3.5-1-5.2-1c-5.8,0-8.2,4.2-8.2,8.7c0,5.5,3.1,8.5,8.1,8.5c1.6,0,2.9-0.2,4.2-0.6v-7.9H91v9.1
					C89-9.6,86.6-9.3,84.6-9.3"/>
			</g>
		</g>
		<g id="Group" transform="translate(159.000000, 31.000000)">
			
				<rect id="Rectangle_00000022551903452972528330000000519494331961928886_" x="-159" y="-31" class="st24" width="61" height="16"/>
			<rect id="Rectangle_00000153665734150868174180000000526705872468803465_" x="-159" y="3" class="st24" width="61" height="16"/>
			
				<rect id="Rectangle_00000115500639260120661840000006877548709354613148_" x="-159" y="38" class="st24" width="61" height="16"/>
			
				<rect id="Rectangle_00000108276941306142449200000004745860223740468629_" x="-159" y="72" class="st24" width="61" height="16"/>
		</g>
	</g>
</g>
</svg>
